<svg xmlns="http://www.w3.org/2000/svg" id="Layer_1" x="0" y="0" version="1.1" xml:space="preserve" viewBox="0 0 2153.4 2151.9"><style id="style2">.st1{fill:#e71a65}</style><path id="path4" fill="#fff" d="M1313.7 2148.1v-4"/><path id="path6" fill="#e71a65" d="M2153.4 1076.7C2153.4 482.1 1671.4 0 1076.7 0S0 482 0 1076.7c0 454.4 281.5 843 679.5 1001 6.9-35.4 13.7-70.8 20.4-106.3 6.2-32.7-3.4-62.4-17.3-90.8-25.2-51.8-51.3-103.1-77.8-154.3-58.6-113.5-81.4-233.9-71.4-361 5.4-68.9 9.5-137.8 14.7-206.8 2.3-30.3-3.7-58.8-15.5-86.7-55.5-131.3-111.2-262.5-165.5-394.3-13.8-33.6-22.6-69.2-33.4-103.9-1.5-4.8-1.6-10.2-1.7-15.3-.3-13.2-1.7-27.5 12.1-35.1 15.3-8.4 33.4-11.4 46.8.4 14.5 12.8 28.2 28.6 36.8 45.8 73.4 147.6 145.7 295.7 217.9 443.8 9.6 19.7 22.9 33.7 44.7 38.7 27 6.2 51.3-7.8 60.9-33.9 11-30 4.3-60 1.1-89.8-11.8-109.5-24.1-219-36.5-328.4-8.3-73.1-19.4-146.1-25-219.4-3-38.8 2-78.4 5.6-117.4 1.2-13.5 6.5-28.7 24.2-31.5 20.9-3.3 43.8 5.2 50.9 23.3 8.6 22 15.1 45.4 18.8 68.8 31.7 198.3 62 396.8 94.5 594.9 3.3 20 15.5 40.9 29.2 56.5 24.6 28.1 67.3 20.6 87.1-11.6 18.2-29.5 18.2-63.3 23-95.7 19.8-134.3 38.7-268.8 57.6-403.2 9.8-70.1 18.3-140.3 28.9-210.3 2.8-18.3 9.1-36.6 17.1-53.3 12.2-25.2 29.1-33.6 51.9-30.3 28.4 4.1 52 23.2 56.8 47.6 2 9.9 2.3 20.5.9 30.5-27.6 204.7-55.5 409.3-83.4 614-2.5 18.6-5.8 37.2-9.2 55.7-6.9 37.8 16 77.5 52.3 89.8 36.6 12.4 75.3-5.6 94.7-44.7 21.1-42.4 41.4-85.1 62.5-127.5 70.2-140.9 140.6-281.6 211.1-422.3 11-22.1 29.3-32.5 50.9-30 22.8 2.7 45.2 18.5 47.3 38.3 1.6 15.2.3 32.6-5.6 46.5-78.2 185.4-157.3 370.4-236.3 555.4-18.1 42.4-31 86.4-31.8 132.3-1 52.9.7 106 5.1 158.7 2.4 28.5 15.6 54.9 38.4 74.4 29.2 25 58.4 21.6 82.9-7.5 86.4-102.9 190.2-179.5 325.2-203.9 38.8-7 79.5-7 119.1-5.4 13.2.5 26.8 15 37.9 25.6 3.8 3.6 3.5 16.6-.1 21.7-6.2 8.8-15.3 18.1-25.2 21.4-90.7 29.7-164.1 86.2-233.5 149-66.3 60-117.6 131.6-163.6 207.8-59.5 98.6-136.1 179.9-242.3 229.9-45.6 21.5-88.3 47.7-125.5 82.3-50.9 47.4-74.3 103.7-73.1 175.1.4 22.2.4 44.4.3 66.6 567.5-30.8 1018-500.4 1018-1075.2z" class="st1"/><path id="path8" fill="#fff" stroke="#fff" stroke-miterlimit="10" stroke-width="7" d="M1135.4 2085.1c-1.3-71.3 22.2-127.6 73.1-175.1 37.2-34.7 79.9-60.9 125.5-82.3 106.2-50 182.8-131.3 242.3-229.9 46-76.2 97.3-147.9 163.6-207.8 69.4-62.8 142.7-119.3 233.5-149 9.8-3.2 18.9-12.6 25.2-21.4 3.6-5.1 3.9-18.1.1-21.7-11.1-10.5-24.8-25-37.9-25.6-39.6-1.6-80.2-1.6-119.1 5.4-135.1 24.4-238.8 101-325.2 203.9-24.5 29.1-53.7 32.5-82.9 7.5-22.8-19.5-36-46-38.4-74.4-4.4-52.7-6.1-105.8-5.1-158.7.8-45.9 13.7-90 31.8-132.3 79.1-185 158.2-370 236.3-555.4 5.9-13.9 7.2-31.3 5.6-46.5-2.1-19.8-24.4-35.6-47.3-38.3-21.6-2.5-39.9 7.9-50.9 30-70.5 140.7-140.8 281.5-211.1 422.3-21.1 42.4-41.4 85.1-62.5 127.5-19.5 39.1-58.1 57-94.7 44.7-36.3-12.3-59.3-51.9-52.3-89.8 3.4-18.5 6.7-37 9.2-55.7 28-204.6 55.8-409.3 83.4-614 1.3-10 1-20.6-.9-30.5-4.8-24.4-28.4-43.5-56.8-47.6-22.8-3.3-39.7 5.1-51.9 30.3-8.1 16.7-14.4 35.1-17.1 53.3-10.5 69.9-19 140.2-28.9 210.3-18.9 134.5-37.9 268.9-57.6 403.2-4.8 32.4-4.8 66.2-23 95.7-19.8 32.2-62.5 39.7-87.1 11.6-13.6-15.6-25.9-36.4-29.2-56.5-32.5-198.1-62.8-396.6-94.5-594.9-3.7-23.4-10.2-46.8-18.8-68.8-7.1-18.1-30-26.6-50.9-23.3-17.8 2.8-23 18-24.2 31.5-3.6 39-8.5 78.6-5.6 117.4 5.6 73.3 16.7 146.2 25 219.4C728.5 709 740.8 818.5 752.6 928c3.2 29.9 9.9 59.9-1.1 89.8-9.6 26.1-33.8 40-60.9 33.9-21.8-5-35-18.9-44.7-38.7C573.7 864.9 501.4 716.7 428 569.2c-8.6-17.2-22.2-33-36.8-45.8-13.4-11.8-31.5-8.8-46.8-.4-13.8 7.5-12.4 21.9-12.1 35.1.1 5.1.2 10.5 1.7 15.3 10.8 34.8 19.6 70.4 33.4 103.9 54.3 131.8 110 263 165.5 394.3 11.8 27.9 17.7 56.3 15.5 86.7-5.1 68.9-9.2 137.9-14.7 206.8-10.1 127.1 12.8 247.5 71.4 361 26.4 51.2 52.5 102.5 77.8 154.3 13.8 28.4 23.5 58.1 17.3 90.8-6.7 35.4-13.6 70.9-20.4 106.3 122.9 48.8 256.9 75.6 397.1 75.6 19.8 0 39.5-.6 59-1.6-.1-22-.1-44.2-.5-66.4z"/><path id="path10" fill="#e71a65" d="M990.4 1317.7c33.2-81.4 86.6-136.4 172.4-153.1 63.2-12.3 109.7 26.9 113.8 91.3 3.2 50.4-8.4 97.1-29.9 142.2-45.5 95.5-107.4 180.4-169.5 265.3-16.2 22.1-31.9 44.5-47.8 66.8-15.8 22.1-36.8 26.1-54.6 6.5-87.9-96.8-175.5-194-232.1-314-18.8-39.9-32.9-81.3-34-126.2-2.1-83.8 55.8-130.4 137.4-109.8 62.5 15.7 103.3 57.7 133.9 111.7 3.5 6 6.6 12.1 10.4 19.3z" class="st1"/></svg>